<svg fill="none" height="36" viewBox="0 0 36 36" width="36" xmlns="http://www.w3.org/2000/svg">
    <path
        d="M24 0H12C5.37258 0 0 5.37258 0 12V24C0 30.6274 5.37258 36 12 36H24C30.6274 36 36 30.6274 36 24V12C36 5.37258 30.6274 0 24 0Z"
        fill="#009F0B" opacity="0.1" />
    <path
        d="M17.8862 9.00042C16.1063 9.02294 14.3731 9.57272 12.9058 10.5802C11.4384 11.5878 10.3027 13.0078 9.64232 14.6608C8.98194 16.3137 8.82653 18.1254 9.19574 19.8667C9.56495 21.608 10.4422 23.2007 11.7165 24.4434C12.9909 25.6861 14.6051 26.5231 16.3551 26.8484C18.1051 27.1737 19.9123 26.9728 21.5481 26.2711C23.1839 25.5694 24.5749 24.3983 25.5452 22.906C26.5155 21.4138 27.0215 19.6673 26.9993 17.8874C26.9624 15.5027 25.9832 13.2294 24.2757 11.5643C22.5682 9.8991 20.2711 8.97738 17.8862 9.00042V9.00042ZM17.8862 10.2C19.1765 10.1675 20.4539 10.4626 21.5993 11.0576L20.3997 13.0826C19.6566 12.7048 18.8328 12.5133 17.9993 12.5246C17.1654 12.5145 16.3416 12.7073 15.5989 13.0865L14.3993 11.0576C15.4778 10.5004 16.6723 10.2048 17.8862 10.1949V10.2ZM13.0866 20.3998L11.0564 21.6006C10.499 20.5084 10.2036 19.3014 10.1937 18.0751C10.1628 16.7844 10.4596 15.5068 11.0564 14.3619L13.0866 15.5577C12.7064 16.3015 12.5131 17.1267 12.5234 17.962C12.5139 18.8079 12.707 19.6438 13.0866 20.3998V20.3998ZM18.1112 25.7998C16.8208 25.8305 15.5438 25.5337 14.3993 24.9371L15.5989 22.9121C16.3416 23.2912 17.1654 23.484 17.9993 23.4739C18.8332 23.484 19.657 23.2912 20.3997 22.9121L21.5993 24.9371C20.5208 25.4943 19.3263 25.7899 18.1124 25.7998H18.1112ZM17.9993 22.3116C17.1463 22.3119 16.3124 22.0592 15.603 21.5854C14.8937 21.1117 14.3408 20.4382 14.0142 19.6501C13.6877 18.8621 13.6022 17.9949 13.7685 17.1583C13.9349 16.3217 14.3456 15.5532 14.9488 14.95C15.5519 14.3468 16.3204 13.9361 17.157 13.7697C17.9937 13.6034 18.8608 13.6889 19.6488 14.0154C20.4369 14.342 21.1103 14.8949 21.5841 15.6043C22.0578 16.3136 22.3106 17.1476 22.3103 18.0006C22.3096 19.1437 21.8552 20.2399 21.0469 21.0482C20.2386 21.8565 19.1424 22.311 17.9993 22.3116V22.3116ZM22.912 20.3998C23.2905 19.6573 23.4829 18.8339 23.4726 18.0006C23.4827 17.1667 23.2899 16.3429 22.9107 15.6001L24.9357 14.4005C25.4932 15.4927 25.7886 16.6998 25.7984 17.926C25.8291 19.2163 25.5323 20.4934 24.9357 21.6379L22.912 20.3998Z"
        fill="#009F0B" />
</svg>
