<svg fill="none" height="40" viewBox="0 0 40 40" width="40" xmlns="http://www.w3.org/2000/svg">
    <defs>
        <linearGradient gradientUnits="userSpaceOnUse" id="paint0_linear_403_2" x1="20" x2="20"
            y1="0" y2="40">
            <stop stop-color="#FF0052" />
            <stop offset="1" stop-color="#FF1F00" />
        </linearGradient>
    </defs>
    <path
        d="M26.6667 0H13.3333C5.96954 0 0 5.96954 0 13.3333V26.6667C0 34.0305 5.96954 40 13.3333 40H26.6667C34.0305 40 40 34.0305 40 26.6667V13.3333C40 5.96954 34.0305 0 26.6667 0Z"
        fill="url(#paint0_linear_403_2)" opacity="0.1" />
    <path
        d="M21.6667 12.5L21.6667 13.25H21.6667V12.5ZM22.5 12.5L22.5 11.75H22.5V12.5ZM27.5 17.5L26.75 17.5L27.5 17.5ZM27.5 22.5L28.25 22.5L27.5 22.5ZM22.5 27.5L22.5 28.25L22.5 27.5ZM21.6667 27.5L21.6667 26.75L21.6667 27.5ZM27.4487 23.9851L28.1895 24.1025L28.1895 24.1025L27.4487 23.9851ZM23.9851 27.4487L23.8678 26.7079L23.9851 27.4487ZM23.9851 12.5513L24.1025 11.8105L24.1025 11.8105L23.9851 12.5513ZM27.4487 16.0149L28.1895 15.8975L28.1895 15.8975L27.4487 16.0149ZM18.7162 12.7334C18.385 12.9821 18.3182 13.4523 18.567 13.7835C18.8158 14.1147 19.2859 14.1815 19.6171 13.9327L18.7162 12.7334ZM19.6171 26.0673C19.2859 25.8185 18.8158 25.8853 18.567 26.2165C18.3182 26.5477 18.385 27.0179 18.7162 27.2666L19.6171 26.0673ZM24.1667 20.75C24.5809 20.75 24.9167 20.4142 24.9167 20C24.9167 19.5858 24.5809 19.25 24.1667 19.25L24.1667 20.75ZM13.3333 20L13.3333 19.25H13.3333V20ZM15.3674 23.921C15.6919 24.1784 16.1637 24.1239 16.421 23.7993C16.6784 23.4747 16.6239 23.003 16.2993 22.7457L15.3674 23.921ZM14.3642 22.1685L13.8982 22.7561L13.8982 22.7561L14.3642 22.1685ZM14.3642 17.8315L13.8982 17.2439L13.8982 17.2439L14.3642 17.8315ZM16.2993 17.2544C16.6239 16.997 16.6784 16.5253 16.421 16.2007C16.1637 15.8761 15.6919 15.8216 15.3674 16.079L16.2993 17.2544ZM12.5166 20.2089L11.7759 20.3269L11.7759 20.3269L12.5166 20.2089ZM12.5166 19.7911L11.7759 19.6731L11.7759 19.6731L12.5166 19.7911ZM12.5 20L11.75 20L12.5 20ZM21.6667 13.25H22.5V11.75H21.6667V13.25ZM26.75 17.5L26.75 22.5L28.25 22.5L28.25 17.5L26.75 17.5ZM22.5 26.75L21.6667 26.75L21.6667 28.25L22.5 28.25L22.5 26.75ZM26.75 22.5C26.75 23.3028 26.7477 23.6169 26.7079 23.8678L28.1895 24.1025C28.2523 23.7056 28.25 23.2455 28.25 22.5L26.75 22.5ZM22.5 28.25C23.2455 28.25 23.7056 28.2523 24.1025 28.1895L23.8678 26.7079C23.6169 26.7477 23.3028 26.75 22.5 26.75L22.5 28.25ZM26.7079 23.8678C26.4764 25.3298 25.3298 26.4764 23.8678 26.7079L24.1025 28.1895C26.2063 27.8563 27.8563 26.2063 28.1895 24.1025L26.7079 23.8678ZM22.5 13.25C23.3028 13.25 23.6169 13.2523 23.8678 13.2921L24.1025 11.8105C23.7056 11.7477 23.2455 11.75 22.5 11.75L22.5 13.25ZM28.25 17.5C28.25 16.7545 28.2523 16.2944 28.1895 15.8975L26.7079 16.1322C26.7477 16.3831 26.75 16.6972 26.75 17.5L28.25 17.5ZM23.8678 13.2921C25.3298 13.5236 26.4764 14.6702 26.7079 16.1322L28.1895 15.8975C27.8563 13.7937 26.2063 12.1437 24.1025 11.8105L23.8678 13.2921ZM21.6667 11.75C20.5607 11.75 19.538 12.1161 18.7162 12.7334L19.6171 13.9327C20.1881 13.5038 20.8966 13.25 21.6667 13.25L21.6667 11.75ZM21.6667 26.75C20.8966 26.75 20.1881 26.4962 19.6171 26.0673L18.7162 27.2666C19.538 27.8839 20.5607 28.25 21.6667 28.25L21.6667 26.75ZM24.1667 19.25L13.3333 19.25L13.3333 20.75L24.1667 20.75L24.1667 19.25ZM16.2993 22.7457L14.8302 21.5808L13.8982 22.7561L15.3674 23.921L16.2993 22.7457ZM14.8302 18.4192L16.2993 17.2544L15.3674 16.079L13.8982 17.2439L14.8302 18.4192ZM14.8302 21.5808C14.23 21.1049 13.831 20.7871 13.5642 20.5213C13.3006 20.2588 13.2651 20.1405 13.2572 20.0909L11.7759 20.3269C11.8582 20.8435 12.1607 21.2405 12.5055 21.584C12.847 21.9241 13.3268 22.303 13.8982 22.7561L14.8302 21.5808ZM13.8982 17.2439C13.3268 17.697 12.847 18.0759 12.5055 18.416C12.1607 18.7595 11.8582 19.1565 11.7759 19.6731L13.2572 19.9091C13.2651 19.8595 13.3006 19.7412 13.5642 19.4787C13.831 19.2129 14.23 18.8951 14.8302 18.4192L13.8982 17.2439ZM13.2572 20.0909C13.2524 20.0604 13.25 20.0301 13.25 20L11.75 20C11.75 20.1094 11.7587 20.2187 11.7759 20.3269L13.2572 20.0909ZM13.25 20C13.25 19.9699 13.2524 19.9396 13.2572 19.9091L11.7759 19.6731C11.7587 19.7813 11.75 19.8906 11.75 20L13.25 20ZM13.3333 19.25H12.5L12.5 20.75H13.3333L13.3333 19.25Z"
        fill="#FF0052" />

</svg>
