<svg fill="none" height="40" viewBox="0 0 40 40" width="40" xmlns="http://www.w3.org/2000/svg">
    <path
        d="M26.6667 0H13.3333C5.96954 0 0 5.96954 0 13.3333V26.6667C0 34.0305 5.96954 40 13.3333 40H26.6667C34.0305 40 40 34.0305 40 26.6667V13.3333C40 5.96954 34.0305 0 26.6667 0Z"
        fill="#D6CFF0" />
    <path clip-rule="evenodd"
        d="M29.6342 19.1157C29.8684 19.3501 30 19.6679 30 19.9992C30 20.3306 29.8684 20.6484 29.6342 20.8828L20.8842 29.6342C20.6498 29.8684 20.332 30 20.0007 30C19.6693 30 19.3515 29.8684 19.1171 29.6342L10.3657 20.8842C10.2495 20.7682 10.1573 20.6304 10.0946 20.4786C10.0318 20.3269 9.99966 20.1642 10 20V13.75C10 12.7554 10.3951 11.8016 11.0983 11.0983C11.8016 10.3951 12.7554 10 13.75 10H20C20.1642 9.99974 20.3268 10.0319 20.4786 10.0947C20.6303 10.1574 20.7682 10.2495 20.8842 10.3657L29.6342 19.1157ZM13.75 15C13.9972 15 14.2389 14.9267 14.4444 14.7893C14.65 14.652 14.8102 14.4567 14.9048 14.2283C14.9994 13.9999 15.0242 13.7486 14.976 13.5061C14.9277 13.2636 14.8087 13.0409 14.6339 12.8661C14.4591 12.6913 14.2363 12.5722 13.9938 12.524C13.7514 12.4758 13.5 12.5005 13.2716 12.5951C13.0432 12.6897 12.848 12.85 12.7107 13.0555C12.5733 13.2611 12.5 13.5028 12.5 13.75C12.5 14.0815 12.6317 14.3994 12.8661 14.6339C13.1005 14.8683 13.4185 15 13.75 15Z"
        fill="#8163D3" fill-rule="evenodd" />
</svg>
