<svg fill="none" height="40" viewBox="0 0 40 40" width="40" xmlns="http://www.w3.org/2000/svg">
    <path
        d="M26.6667 0H13.3333C5.96954 0 0 5.96954 0 13.3333V26.6667C0 34.0305 5.96954 40 13.3333 40H26.6667C34.0305 40 40 34.0305 40 26.6667V13.3333C40 5.96954 34.0305 0 26.6667 0Z"
        fill="#FCA54D" opacity="0.21" />
    <path
        d="M27.4697 23.9321C26.7112 22.9087 26.1595 21.7473 25.8454 20.5128C25.5352 19.313 25.3916 18.0763 25.4187 16.8374C25.4351 16.0926 25.2995 15.3523 25.0202 14.6617C24.741 13.9711 24.3238 13.3446 23.7943 12.8206C23.04 12.0681 22.0941 11.5363 21.0591 11.283C21.067 11.1125 21.0409 10.9422 20.9823 10.7819C20.9237 10.6216 20.8337 10.4746 20.7177 10.3494C20.5923 10.2314 20.4445 10.1398 20.283 10.08C20.1215 10.0202 19.9496 9.99346 19.7775 10.0014C19.6071 9.99348 19.4367 10.0196 19.2764 10.0782C19.1162 10.1368 18.9692 10.2268 18.844 10.3428C18.728 10.4679 18.6381 10.6149 18.5794 10.7752C18.5208 10.9355 18.4947 11.1058 18.5026 11.2763V11.3616C17.4296 11.5273 16.4396 12.0375 15.6821 12.8153C15.1323 13.33 14.6957 13.9535 14.4002 14.6463C14.1047 15.339 13.9567 16.0857 13.9657 16.8387C13.9918 18.1057 13.8483 19.3705 13.539 20.5995C13.2326 21.7946 12.7111 22.9239 12 23.9321C12 24.8657 15.5047 25.8125 19.7775 25.8125C24.0504 25.8125 27.379 24.879 27.4697 23.9321V23.9321Z"
        fill="#FCA54D" />
    <path
        d="M17.3851 27.3516V27.693C17.3923 28.3026 17.6377 28.8852 18.0688 29.3163C18.5 29.7474 19.0826 29.9928 19.6922 30.0001C20.3276 29.9939 20.9376 29.7498 21.4019 29.316C21.8333 28.8847 22.0789 28.3016 22.086 27.6916V27.3516C21.2312 27.4369 20.3763 27.4369 19.4361 27.4369C18.7513 27.4549 18.066 27.4264 17.3851 27.3516V27.3516Z"
        fill="#FCA54D" />
</svg>
