<svg fill="none" height="36" viewBox="0 0 36 36" width="36" xmlns="http://www.w3.org/2000/svg">
    <path
        d="M24 0H12C5.37258 0 0 5.37258 0 12V24C0 30.6274 5.37258 36 12 36H24C30.6274 36 36 30.6274 36 24V12C36 5.37258 30.6274 0 24 0Z"
        fill="#FCA54D" opacity="0.21" />
    <path
        d="M24.9228 21.5389C24.2401 20.6179 23.7435 19.5726 23.4609 18.4615C23.1817 17.3817 23.0524 16.2687 23.0768 15.1537C23.0916 14.4834 22.9696 13.8171 22.7182 13.1955C22.4669 12.574 22.0915 12.0101 21.6149 11.5385C20.936 10.8613 20.0847 10.3827 19.1532 10.1547C19.1603 10.0012 19.1368 9.84794 19.0841 9.70369C19.0313 9.55944 18.9504 9.42714 18.846 9.3145C18.7331 9.20827 18.6 9.1258 18.4547 9.07199C18.3093 9.01818 18.1546 8.99412 17.9998 9.00124C17.8464 8.99413 17.6931 9.01763 17.5488 9.07039C17.4046 9.12314 17.2723 9.20409 17.1596 9.3085C17.0552 9.42114 16.9743 9.55344 16.9215 9.69769C16.8688 9.84194 16.8452 9.99524 16.8524 10.1487V10.2255C15.8866 10.3745 14.9956 10.8337 14.3139 11.5337C13.819 11.997 13.4261 12.5582 13.1602 13.1816C12.8942 13.8051 12.761 14.4771 12.7691 15.1549C12.7926 16.2952 12.6635 17.4335 12.3851 18.5395C12.1093 19.6151 11.64 20.6315 11 21.5389C11 22.3791 14.1542 23.2313 17.9998 23.2313C21.8453 23.2313 24.8411 22.3911 24.9228 21.5389V21.5389Z"
        fill="#FCA54D" />
    <path
        d="M15.8466 24.6165V24.9237C15.8531 25.4724 16.074 25.9967 16.462 26.3847C16.85 26.7727 17.3743 26.9936 17.923 27.0001C18.4948 26.9945 19.0438 26.7749 19.4617 26.3844C19.85 25.9962 20.071 25.4715 20.0774 24.9225V24.6165C19.308 24.6933 18.5387 24.6933 17.6925 24.6933C17.0762 24.7094 16.4594 24.6838 15.8466 24.6165V24.6165Z"
        fill="#FCA54D" />
</svg>
