<svg fill="none" height="40" viewBox="0 0 40 40" width="40" xmlns="http://www.w3.org/2000/svg">
    <path
        d="M26.6667 0H13.3333C5.96954 0 0 5.96954 0 13.3333V26.6667C0 34.0305 5.96954 40 13.3333 40H26.6667C34.0305 40 40 34.0305 40 26.6667V13.3333C40 5.96954 34.0305 0 26.6667 0Z"
        fill="#3572FF" opacity="0.21" />
    <path
        d="M18.125 19.9999C18.125 18.9644 18.9645 18.1249 20 18.1249C21.0356 18.1249 21.875 18.9644 21.875 19.9999C21.875 21.0355 21.0356 21.8749 20 21.8749C18.9645 21.8749 18.125 21.0355 18.125 19.9999Z"
        fill="#3572FF" />
    <path clip-rule="evenodd"
        d="M17.1544 12.6935C17.9714 9.83068 22.0286 9.83068 22.8456 12.6935C23.0987 13.5805 24.01 14.1066 24.9047 13.8824C27.7925 13.1585 29.8211 16.6721 27.7503 18.8111C27.1087 19.4738 27.1087 20.5261 27.7503 21.1888C29.8211 23.3278 27.7925 26.8414 24.9047 26.1175C24.01 25.8932 23.0987 26.4194 22.8456 27.3064C22.0286 30.1692 17.9714 30.1692 17.1544 27.3064C16.9012 26.4194 15.99 25.8932 15.0952 26.1175C12.2074 26.8414 10.1789 23.3278 12.2496 21.1888C12.8912 20.5261 12.8912 19.4738 12.2496 18.8111C10.1789 16.6721 12.2074 13.1585 15.0952 13.8824C15.99 14.1066 16.9012 13.5805 17.1544 12.6935ZM20 16.8749C18.2741 16.8749 16.875 18.274 16.875 19.9999C16.875 21.7258 18.2741 23.1249 20 23.1249C21.7259 23.1249 23.125 21.7258 23.125 19.9999C23.125 18.274 21.7259 16.8749 20 16.8749Z"
        fill="#3572FF" fill-rule="evenodd" />
</svg>
