<svg fill="none" height="36" viewBox="0 0 36 36" width="36" xmlns="http://www.w3.org/2000/svg">
    <path
        d="M24 0H12C5.37258 0 0 5.37258 0 12V24C0 30.6274 5.37258 36 12 36H24C30.6274 36 36 30.6274 36 24V12C36 5.37258 30.6274 0 24 0Z"
        fill="#3572FF" opacity="0.21" />
    <path
        d="M16.3125 17.9999C16.3125 17.0679 17.068 16.3124 18 16.3124C18.932 16.3124 19.6875 17.0679 19.6875 17.9999C19.6875 18.9319 18.932 19.6874 18 19.6874C17.068 19.6874 16.3125 18.9319 16.3125 17.9999Z"
        fill="#3572FF" />
    <path clip-rule="evenodd"
        d="M15.4389 11.4241C16.1742 8.84757 19.8257 8.84756 20.561 11.4241C20.7888 12.2224 21.609 12.6959 22.4142 12.4941C25.0132 11.8426 26.839 15.0049 24.9753 16.9299C24.3978 17.5264 24.3978 18.4734 24.9753 19.0699C26.839 20.9949 25.0132 24.1572 22.4142 23.5057C21.609 23.3039 20.7888 23.7774 20.561 24.5757C19.8257 27.1522 16.1742 27.1522 15.4389 24.5757C15.2111 23.7774 14.3909 23.3039 13.5857 23.5057C10.9867 24.1572 9.16095 20.9949 11.0246 19.0699C11.6021 18.4734 11.6021 17.5264 11.0246 16.9299C9.16095 15.0049 10.9867 11.8426 13.5857 12.4941C14.3909 12.6959 15.2111 12.2224 15.4389 11.4241ZM18 15.1874C16.4467 15.1874 15.1875 16.4466 15.1875 17.9999C15.1875 19.5532 16.4467 20.8124 18 20.8124C19.5533 20.8124 20.8125 19.5532 20.8125 17.9999C20.8125 16.4466 19.5533 15.1874 18 15.1874Z"
        fill="#3572FF" fill-rule="evenodd" />
</svg>
