<svg fill="none" height="40" viewBox="0 0 40 40" width="40" xmlns="http://www.w3.org/2000/svg">
    <path
        d="M26.6667 0H13.3333C5.96954 0 0 5.96954 0 13.3333V26.6667C0 34.0305 5.96954 40 13.3333 40H26.6667C34.0305 40 40 34.0305 40 26.6667V13.3333C40 5.96954 34.0305 0 26.6667 0Z"
        fill="#009F0B" opacity="0.1" />
    <path
        d="M20.2392 10.0005C18.1884 10.0255 16.1913 10.6364 14.5005 11.7558C12.8097 12.8753 11.501 14.4531 10.7401 16.2897C9.97919 18.1264 9.80012 20.1393 10.2255 22.0741C10.651 24.0089 11.6618 25.7785 13.1302 27.1593C14.5986 28.5402 16.4586 29.4701 18.475 29.8316C20.4915 30.193 22.5738 29.9698 24.4587 29.1901C26.3436 28.4104 27.9464 27.1092 29.0644 25.4512C30.1825 23.7931 30.7656 21.8525 30.7399 19.8749C30.6974 17.2252 29.5691 14.6993 27.6016 12.8492C25.6341 10.999 22.9872 9.97486 20.2392 10.0005V10.0005ZM20.2392 11.3333C21.726 11.2972 23.198 11.6251 24.5177 12.2862L23.1355 14.5363C22.2793 14.1165 21.33 13.9037 20.3696 13.9162C19.4087 13.905 18.4595 14.1193 17.6036 14.5405L16.2214 12.2862C17.4641 11.6671 18.8405 11.3387 20.2392 11.3276V11.3333ZM14.7088 22.6664L12.3696 24.0007C11.7272 22.7871 11.3869 21.446 11.3755 20.0835C11.3399 18.6493 11.6819 17.2298 12.3696 15.9577L14.7088 17.2863C14.2707 18.1128 14.048 19.0297 14.0599 19.9578C14.049 20.8976 14.2715 21.8264 14.7088 22.6664V22.6664ZM20.4985 28.6665C19.0117 28.7006 17.5402 28.3708 16.2214 27.7079L17.6036 25.4579C18.4595 25.8791 19.4087 26.0934 20.3696 26.0822C21.3304 26.0934 22.2796 25.8791 23.1355 25.4579L24.5177 27.7079C23.275 28.327 21.8986 28.6554 20.4999 28.6665H20.4985ZM20.3696 24.7907C19.3867 24.791 18.4258 24.5102 17.6084 23.9838C16.7911 23.4574 16.154 22.7091 15.7777 21.8335C15.4014 20.9579 15.3029 19.9944 15.4946 19.0648C15.6863 18.1352 16.1595 17.2813 16.8545 16.6111C17.5496 15.9409 18.4351 15.4845 19.3991 15.2997C20.3631 15.1149 21.3623 15.2099 22.2703 15.5727C23.1783 15.9355 23.9543 16.5499 24.5002 17.3381C25.0461 18.1263 25.3373 19.0528 25.337 20.0006C25.3362 21.2708 24.8126 22.4887 23.8812 23.3869C22.9498 24.285 21.6868 24.79 20.3696 24.7907V24.7907ZM26.0303 22.6664C26.4664 21.8414 26.6881 20.9266 26.6762 20.0006C26.6879 19.0741 26.4657 18.1587 26.0288 17.3334L28.3622 16.0006C29.0045 17.2141 29.3449 18.5553 29.3562 19.9178C29.3916 21.3515 29.0496 22.7704 28.3622 24.0421L26.0303 22.6664Z"
        fill="#009F0B" />
</svg>
