<svg fill="none" height="36" viewBox="0 0 36 36" width="36" xmlns="http://www.w3.org/2000/svg">
    <defs>
        <linearGradient gradientUnits="userSpaceOnUse" id="paint0_linear_403_2" x1="18" x2="18"
            y1="0" y2="36">
            <stop stop-color="#FF0052" />
            <stop offset="1" stop-color="#FF1F00" />
        </linearGradient>
    </defs>
    <path
        d="M24 0H12C5.37258 0 0 5.37258 0 12V24C0 30.6274 5.37258 36 12 36H24C30.6274 36 36 30.6274 36 24V12C36 5.37258 30.6274 0 24 0Z"
        fill="url(#paint0_linear_403_2)" opacity="0.1" />
    <path
        d="M19.5 11.25L19.5 12H19.5V11.25ZM20.25 11.25L20.25 10.5H20.25V11.25ZM24.75 15.75L24 15.75L24.75 15.75ZM24.75 20.25L25.5 20.25L24.75 20.25ZM20.25 24.75L20.25 25.5L20.25 24.75ZM19.5 24.75L19.5 24L19.5 24.75ZM24.7038 21.5866L25.4446 21.704L25.4446 21.704L24.7038 21.5866ZM21.5866 24.7038L21.4693 23.9631L21.5866 24.7038ZM21.5866 11.2962L21.704 10.5554L21.704 10.5554L21.5866 11.2962ZM24.7038 14.4134L25.4446 14.296L25.4446 14.296L24.7038 14.4134ZM16.7996 11.4001C16.4684 11.6488 16.4016 12.119 16.6503 12.4502C16.8991 12.7813 17.3692 12.8482 17.7004 12.5994L16.7996 11.4001ZM17.7004 23.4006C17.3692 23.1518 16.8991 23.2186 16.6503 23.5498C16.4016 23.881 16.4684 24.3512 16.7996 24.5999L17.7004 23.4006ZM21.75 18.75C22.1642 18.75 22.5 18.4142 22.5 18C22.5 17.5858 22.1642 17.25 21.75 17.25L21.75 18.75ZM12 18L12 17.25H12L12 18ZM13.784 21.5877C14.1086 21.845 14.5803 21.7905 14.8377 21.466C15.095 21.1414 15.0405 20.6697 14.716 20.4123L13.784 21.5877ZM12.9278 19.9516L12.4618 20.5393L12.4618 20.5393L12.9278 19.9516ZM12.9278 16.0484L12.4618 15.4607L12.4618 15.4607L12.9278 16.0484ZM14.716 15.5877C15.0405 15.3303 15.095 14.8586 14.8377 14.534C14.5803 14.2095 14.1086 14.155 13.784 14.4123L14.716 15.5877ZM11.2649 18.188L10.5243 18.306L10.5243 18.306L11.2649 18.188ZM11.2649 17.812L10.5243 17.694L10.5243 17.694L11.2649 17.812ZM11.25 18L10.5 18L11.25 18ZM19.5 12H20.25V10.5H19.5V12ZM24 15.75L24 20.25L25.5 20.25L25.5 15.75L24 15.75ZM20.25 24L19.5 24L19.5 25.5L20.25 25.5L20.25 24ZM24 20.25C24 20.9754 23.9977 21.2508 23.9631 21.4693L25.4446 21.704C25.5023 21.3395 25.5 20.9181 25.5 20.25L24 20.25ZM20.25 25.5C20.9181 25.5 21.3395 25.5023 21.704 25.4446L21.4693 23.9631C21.2508 23.9977 20.9754 24 20.25 24L20.25 25.5ZM23.9631 21.4693C23.7598 22.753 22.753 23.7598 21.4693 23.9631L21.704 25.4446C23.6295 25.1396 25.1396 23.6295 25.4446 21.704L23.9631 21.4693ZM20.25 12C20.9754 12 21.2508 12.0023 21.4693 12.0369L21.704 10.5554C21.3395 10.4977 20.9181 10.5 20.25 10.5L20.25 12ZM25.5 15.75C25.5 15.0819 25.5023 14.6605 25.4446 14.296L23.9631 14.5307C23.9977 14.7492 24 15.0246 24 15.75L25.5 15.75ZM21.4693 12.0369C22.753 12.2402 23.7598 13.247 23.9631 14.5307L25.4446 14.296C25.1396 12.3705 23.6295 10.8604 21.704 10.5554L21.4693 12.0369ZM19.5 10.5C18.4878 10.5 17.5517 10.8351 16.7996 11.4001L17.7004 12.5994C18.2018 12.2228 18.8238 12 19.5 12L19.5 10.5ZM19.5 24C18.8238 24 18.2018 23.7772 17.7004 23.4006L16.7996 24.5999C17.5517 25.1649 18.4878 25.5 19.5 25.5L19.5 24ZM21.75 17.25L12 17.25L12 18.75L21.75 18.75L21.75 17.25ZM14.716 20.4123L13.3937 19.3639L12.4618 20.5393L13.784 21.5877L14.716 20.4123ZM13.3937 16.6361L14.716 15.5877L13.784 14.4123L12.4618 15.4607L13.3937 16.6361ZM13.3937 19.3639C12.8522 18.9345 12.4971 18.6515 12.2607 18.416C12.0276 18.1838 12.009 18.0913 12.0056 18.07L10.5243 18.306C10.6021 18.7943 10.8876 19.1655 11.2021 19.4787C11.5131 19.7886 11.9489 20.1326 12.4618 20.5393L13.3937 19.3639ZM12.4618 15.4607C11.9489 15.8674 11.5131 16.2114 11.2021 16.5213C10.8876 16.8345 10.6021 17.2057 10.5243 17.694L12.0056 17.93C12.009 17.9087 12.0276 17.8162 12.2607 17.584C12.4971 17.3485 12.8522 17.0655 13.3937 16.6361L12.4618 15.4607ZM12.0056 18.07C12.0018 18.0465 12 18.0231 12 18L10.5 18C10.5 18.1025 10.5081 18.2047 10.5243 18.306L12.0056 18.07ZM12 18C12 17.9769 12.0018 17.9535 12.0056 17.93L10.5243 17.694C10.5081 17.7953 10.5 17.8975 10.5 18L12 18ZM12 17.25H11.25L11.25 18.75H12L12 17.25Z"
        fill="#FF0052" />

</svg>
