<svg fill="none" height="36" viewBox="0 0 36 36" width="36" xmlns="http://www.w3.org/2000/svg">
    <path
        d="M24 0H12C5.37258 0 0 5.37258 0 12V24C0 30.6274 5.37258 36 12 36H24C30.6274 36 36 30.6274 36 24V12C36 5.37258 30.6274 0 24 0Z"
        fill="#D6CFF0" />
    <path clip-rule="evenodd"
        d="M26.6708 17.2041C26.8816 17.4151 27 17.7011 27 17.9993C27 18.2975 26.8816 18.5836 26.6708 18.7945L18.7958 26.6708C18.5849 26.8816 18.2988 27 18.0006 27C17.7024 27 17.4163 26.8816 17.2054 26.6708L9.32914 18.7958C9.22453 18.6914 9.14159 18.5673 9.08511 18.4308C9.02862 18.2942 8.9997 18.1478 9 18V12.375C9 11.4799 9.35558 10.6214 9.98851 9.98851C10.6214 9.35558 11.4799 9 12.375 9H18C18.1478 8.99977 18.2941 9.02872 18.4307 9.0852C18.5673 9.14169 18.6914 9.22459 18.7958 9.32914L26.6708 17.2041ZM12.375 13.5C12.5975 13.5 12.815 13.434 13 13.3104C13.185 13.1868 13.3292 13.0111 13.4143 12.8055C13.4995 12.5999 13.5218 12.3737 13.4784 12.1555C13.435 11.9373 13.3278 11.7368 13.1705 11.5795C13.0131 11.4222 12.8127 11.315 12.5945 11.2716C12.3762 11.2282 12.15 11.2505 11.9445 11.3356C11.7389 11.4208 11.5632 11.565 11.4396 11.75C11.316 11.935 11.25 12.1525 11.25 12.375C11.25 12.6734 11.3685 12.9595 11.5795 13.1705C11.7905 13.3815 12.0766 13.5 12.375 13.5Z"
        fill="#8163D3" fill-rule="evenodd" />
</svg>
