<svg fill="none" height="102" viewBox="0 0 382 102" width="382" xmlns="http://www.w3.org/2000/svg">
    <path
        d="M369 0H13C5.8203 0 0 5.8203 0 13V89C0 96.1797 5.8203 102 13 102H369C376.18 102 382 96.1797 382 89V13C382 5.8203 376.18 0 369 0Z"
        fill="#FFCBC4" opacity="0.2" />
    <path
        d="M137.926 49.3252C140.984 49.3252 143.217 47.4355 143.437 44.6934H140.853C140.598 46.0908 139.455 46.9873 137.935 46.9873C135.931 46.9873 134.691 45.3262 134.691 42.6543C134.691 39.9824 135.931 38.3301 137.926 38.3301C139.438 38.3301 140.589 39.2881 140.844 40.7471H143.428C143.234 37.9873 140.932 35.9922 137.926 35.9922C134.243 35.9922 131.976 38.5322 131.976 42.6543C131.976 46.7852 134.252 49.3252 137.926 49.3252ZM149.923 49.2109C152.902 49.2109 154.695 47.3213 154.695 44.1484C154.695 41.002 152.876 39.0947 149.923 39.0947C146.97 39.0947 145.15 41.0107 145.15 44.1484C145.15 47.3213 146.943 49.2109 149.923 49.2109ZM149.923 47.1191C148.552 47.1191 147.778 46.0381 147.778 44.1484C147.778 42.2852 148.561 41.1865 149.923 41.1865C151.276 41.1865 152.067 42.2852 152.067 44.1484C152.067 46.0293 151.285 47.1191 149.923 47.1191ZM165.146 39.3057H162.447L160.461 46.5303H160.303L158.299 39.3057H155.548L158.914 49H161.797L165.146 39.3057ZM166.895 49H169.452V39.3057H166.895V49ZM168.178 37.9521C169.092 37.9521 169.689 37.416 169.689 36.6602C169.689 35.8955 169.092 35.3682 168.178 35.3682C167.255 35.3682 166.666 35.8955 166.666 36.6602C166.666 37.416 167.255 37.9521 168.178 37.9521ZM175.517 49.1494C176.861 49.1494 177.96 48.5254 178.479 47.4795H178.637V49H181.115V35.6055H178.558V40.8525H178.408C177.907 39.7803 176.826 39.1475 175.517 39.1475C173.082 39.1475 171.57 41.0547 171.57 44.1396C171.57 47.2334 173.073 49.1494 175.517 49.1494ZM176.387 41.292C177.749 41.292 178.584 42.3906 178.584 44.1572C178.584 45.9326 177.758 47.0137 176.387 47.0137C175.016 47.0137 174.198 45.9414 174.198 44.1484C174.198 42.373 175.024 41.292 176.387 41.292ZM189.737 45.0801V42.6807H183.963V45.0801H189.737ZM195.556 49H198.21V36.3174H195.564L192.286 38.5762V41.0459L195.397 38.9014H195.556V49ZM206.375 49.3252C209.68 49.3252 211.666 46.7764 211.666 42.5576C211.666 40.8262 211.306 39.3672 210.603 38.2773C209.724 36.792 208.247 35.9922 206.419 35.9922C203.58 35.9922 201.567 37.8643 201.567 40.501C201.567 42.9268 203.334 44.7021 205.742 44.7021C207.219 44.7021 208.396 44.0254 208.977 42.8301H208.994C208.994 42.8301 209.038 42.8301 209.056 42.8301C209.082 42.8301 209.135 42.8301 209.135 42.8301C209.188 45.4668 208.133 47.1455 206.393 47.1455C205.399 47.1455 204.608 46.6182 204.362 45.7832H201.734C202.095 47.8926 203.967 49.3252 206.375 49.3252ZM206.437 42.6543C205.109 42.6543 204.143 41.7139 204.143 40.4131C204.143 39.1475 205.145 38.1631 206.445 38.1631C207.746 38.1631 208.739 39.1562 208.739 40.4395C208.739 41.7139 207.764 42.6543 206.437 42.6543ZM218.381 45.4756C218.478 47.8398 220.438 49.3252 223.461 49.3252C226.643 49.3252 228.603 47.7607 228.603 45.2031C228.603 43.2344 227.504 42.1357 224.955 41.5996L223.426 41.2744C221.94 40.958 221.334 40.5098 221.334 39.7275C221.334 38.7607 222.213 38.1455 223.54 38.1455C224.823 38.1455 225.755 38.8135 225.878 39.8154H228.374C228.295 37.5566 226.317 35.9922 223.522 35.9922C220.596 35.9922 218.671 37.5654 218.671 39.9561C218.671 41.8896 219.805 43.0938 222.116 43.5771L223.769 43.9287C225.324 44.2627 225.957 44.7285 225.957 45.5371C225.957 46.4951 224.981 47.1631 223.602 47.1631C222.107 47.1631 221.07 46.5039 220.947 45.4756H218.381ZM234.219 47.2246C233.331 47.2246 232.707 46.7852 232.707 46.0645C232.707 45.3701 233.243 44.9746 234.342 44.8955L236.302 44.7725V45.4844C236.302 46.4688 235.405 47.2246 234.219 47.2246ZM233.375 49.1494C234.632 49.1494 235.687 48.6221 236.188 47.7344H236.346V49H238.824V42.3818C238.824 40.3076 237.374 39.0947 234.808 39.0947C232.373 39.0947 230.729 40.2197 230.562 42.0127H232.918C233.129 41.4326 233.744 41.1162 234.667 41.1162C235.722 41.1162 236.302 41.5732 236.302 42.3818V43.1729L233.955 43.3135C231.547 43.4541 230.202 44.4736 230.202 46.2314C230.202 48.0068 231.512 49.1494 233.375 49.1494ZM242.085 49H244.643V41.415H246.646V39.4023H244.59V38.6025C244.59 37.7764 244.959 37.3809 245.961 37.3809C246.295 37.3809 246.559 37.4072 246.726 37.4248V35.6143C246.356 35.5527 245.926 35.5176 245.407 35.5176C243.069 35.5176 242.085 36.4932 242.085 38.418V39.4023H240.521V41.415H242.085V49ZM252.544 41.0547C253.739 41.0547 254.513 41.8545 254.565 43.1377H250.435C250.522 41.8809 251.357 41.0547 252.544 41.0547ZM254.618 46.2402C254.346 46.8818 253.651 47.2422 252.641 47.2422C251.305 47.2422 250.461 46.3457 250.426 44.9043V44.7725H257.079V43.9902C257.079 40.9141 255.392 39.0947 252.535 39.0947C249.652 39.0947 247.877 41.0459 247.877 44.2012C247.877 47.3477 249.617 49.2109 252.57 49.2109C254.943 49.2109 256.613 48.0684 257 46.2402H254.618ZM259.909 37.0029V39.4023H258.397V41.415H259.909V46.3809C259.909 48.2705 260.841 49.0352 263.196 49.0352C263.688 49.0352 264.163 48.9824 264.479 48.9209V46.9697C264.233 46.9961 264.058 47.0049 263.724 47.0049C262.854 47.0049 262.467 46.6182 262.467 45.7744V41.415H264.479V39.4023H262.467V37.0029H259.909ZM267.819 52.5244C270.236 52.5244 271.423 51.6455 272.249 49.1494L275.589 39.3057H272.882L270.843 46.6533H270.685L268.646 39.3057H265.824L269.226 49.0615L269.138 49.4131C268.927 50.1514 268.382 50.459 267.424 50.459C267.318 50.459 266.932 50.459 266.844 50.4414V52.498C266.949 52.5156 267.723 52.5244 267.819 52.5244ZM287.656 49.3252C290.715 49.3252 292.947 47.4355 293.167 44.6934H290.583C290.328 46.0908 289.186 46.9873 287.665 46.9873C285.661 46.9873 284.422 45.3262 284.422 42.6543C284.422 39.9824 285.661 38.3301 287.656 38.3301C289.168 38.3301 290.319 39.2881 290.574 40.7471H293.158C292.965 37.9873 290.662 35.9922 287.656 35.9922C283.974 35.9922 281.706 38.5322 281.706 42.6543C281.706 46.7852 283.982 49.3252 287.656 49.3252ZM299.548 41.0547C300.743 41.0547 301.517 41.8545 301.569 43.1377H297.438C297.526 41.8809 298.361 41.0547 299.548 41.0547ZM301.622 46.2402C301.35 46.8818 300.655 47.2422 299.645 47.2422C298.309 47.2422 297.465 46.3457 297.43 44.9043V44.7725H304.083V43.9902C304.083 40.9141 302.396 39.0947 299.539 39.0947C296.656 39.0947 294.881 41.0459 294.881 44.2012C294.881 47.3477 296.621 49.2109 299.574 49.2109C301.947 49.2109 303.617 48.0684 304.004 46.2402H301.622ZM306.184 49H308.741V43.4102C308.741 42.1357 309.471 41.3008 310.657 41.3008C311.87 41.3008 312.441 42.0039 312.441 43.3398V49H314.999V42.7334C314.999 40.4131 313.839 39.0947 311.686 39.0947C310.253 39.0947 309.269 39.7715 308.82 40.8613H308.662V39.3057H306.184V49ZM318.216 37.0029V39.4023H316.704V41.415H318.216V46.3809C318.216 48.2705 319.147 49.0352 321.503 49.0352C321.995 49.0352 322.47 48.9824 322.786 48.9209V46.9697C322.54 46.9961 322.364 47.0049 322.03 47.0049C321.16 47.0049 320.773 46.6182 320.773 45.7744V41.415H322.786V39.4023H320.773V37.0029H318.216ZM324.922 49H327.479V43.6299C327.479 42.2676 328.438 41.4414 329.835 41.4414C330.248 41.4414 330.846 41.5205 331.048 41.5996V39.2705C330.828 39.1914 330.397 39.1475 330.046 39.1475C328.815 39.1475 327.813 39.8857 327.559 40.8525H327.4V39.3057H324.922V49ZM336.726 41.0547C337.921 41.0547 338.694 41.8545 338.747 43.1377H334.616C334.704 41.8809 335.539 41.0547 336.726 41.0547ZM338.8 46.2402C338.527 46.8818 337.833 47.2422 336.822 47.2422C335.486 47.2422 334.643 46.3457 334.607 44.9043V44.7725H341.261V43.9902C341.261 40.9141 339.573 39.0947 336.717 39.0947C333.834 39.0947 332.059 41.0459 332.059 44.2012C332.059 47.3477 333.799 49.2109 336.752 49.2109C339.125 49.2109 340.795 48.0684 341.182 46.2402H338.8Z"
        fill="#FF0A38" />
    <path
        d="M137.862 67.6924H133.571V59.8403H132.149V69H137.862V67.6924ZM142.026 63.1157C143.035 63.1157 143.695 63.8203 143.727 64.9058H140.236C140.312 63.8267 141.017 63.1157 142.026 63.1157ZM143.721 67.1338C143.467 67.6733 142.902 67.9717 142.077 67.9717C140.985 67.9717 140.28 67.2036 140.236 65.9912V65.915H145.117V65.439C145.117 63.2681 143.956 61.9541 142.032 61.9541C140.083 61.9541 138.846 63.3569 138.846 65.5659C138.846 67.7749 140.058 69.1333 142.039 69.1333C143.619 69.1333 144.724 68.3716 145.035 67.1338H143.721ZM149.015 67.9653C148.272 67.9653 147.732 67.6035 147.732 66.9814C147.732 66.3721 148.164 66.0483 149.116 65.9849L150.805 65.877V66.4546C150.805 67.3115 150.043 67.9653 149.015 67.9653ZM148.666 69.1143C149.573 69.1143 150.329 68.7207 150.741 68.0288H150.849V69H152.163V64.2773C152.163 62.8174 151.186 61.9541 149.453 61.9541C147.885 61.9541 146.768 62.7158 146.628 63.9028H147.948C148.101 63.4141 148.627 63.1348 149.389 63.1348C150.322 63.1348 150.805 63.5474 150.805 64.2773V64.874L148.932 64.9819C147.288 65.0835 146.361 65.8008 146.361 67.0449C146.361 68.3081 147.333 69.1143 148.666 69.1143ZM154.105 69H155.47V64.9185C155.47 63.9473 156.2 63.2935 157.235 63.2935C157.476 63.2935 157.882 63.3379 157.997 63.376V62.0303C157.851 61.9922 157.59 61.9731 157.387 61.9731C156.486 61.9731 155.718 62.4683 155.521 63.1475H155.419V62.0874H154.105V69ZM159.412 69H160.777V64.9565C160.777 63.8774 161.418 63.2046 162.427 63.2046C163.437 63.2046 163.919 63.7568 163.919 64.8677V69H165.284V64.5249C165.284 62.8809 164.433 61.9541 162.891 61.9541C161.85 61.9541 161.164 62.4175 160.828 63.1855H160.726V62.0874H159.412V69ZM170.825 69H172.19V64.9629C172.19 63.9155 172.812 63.2109 173.929 63.2109C174.894 63.2109 175.408 63.7695 175.408 64.874V69H176.773V64.5376C176.773 62.8936 175.865 61.9604 174.393 61.9604C173.352 61.9604 172.622 62.4238 172.285 63.1982H172.177V59.3896H170.825V69ZM181.616 69.1333C183.635 69.1333 184.873 67.7812 184.873 65.5405C184.873 63.3125 183.628 61.9541 181.616 61.9541C179.598 61.9541 178.354 63.3125 178.354 65.5405C178.354 67.7812 179.591 69.1333 181.616 69.1333ZM181.616 67.9209C180.429 67.9209 179.763 67.0513 179.763 65.5405C179.763 64.0425 180.429 63.1665 181.616 63.1665C182.797 63.1665 183.47 64.0425 183.47 65.5405C183.47 67.0449 182.797 67.9209 181.616 67.9209ZM195.251 62.0874H193.886L192.655 67.3623H192.547L191.125 62.0874H189.817L188.396 67.3623H188.294L187.056 62.0874H185.672L187.577 69H188.979L190.401 63.9092H190.509L191.938 69H193.353L195.251 62.0874ZM209.216 62.0874H207.851L206.62 67.3623H206.512L205.09 62.0874H203.782L202.36 67.3623H202.259L201.021 62.0874H199.637L201.542 69H202.944L204.366 63.9092H204.474L205.902 69H207.318L209.216 62.0874ZM213.196 63.1157C214.205 63.1157 214.865 63.8203 214.897 64.9058H211.406C211.482 63.8267 212.187 63.1157 213.196 63.1157ZM214.891 67.1338C214.637 67.6733 214.072 67.9717 213.247 67.9717C212.155 67.9717 211.45 67.2036 211.406 65.9912V65.915H216.287V65.439C216.287 63.2681 215.125 61.9541 213.202 61.9541C211.253 61.9541 210.016 63.3569 210.016 65.5659C210.016 67.7749 211.228 69.1333 213.208 69.1333C214.789 69.1333 215.894 68.3716 216.205 67.1338H214.891ZM221.543 69H222.908V64.9629C222.908 63.9155 223.53 63.2109 224.647 63.2109C225.612 63.2109 226.126 63.7695 226.126 64.874V69H227.491V64.5376C227.491 62.8936 226.583 61.9604 225.11 61.9604C224.069 61.9604 223.339 62.4238 223.003 63.1982H222.895V59.3896H221.543V69ZM232.251 63.1157C233.261 63.1157 233.921 63.8203 233.953 64.9058H230.461C230.538 63.8267 231.242 63.1157 232.251 63.1157ZM233.946 67.1338C233.692 67.6733 233.127 67.9717 232.302 67.9717C231.21 67.9717 230.506 67.2036 230.461 65.9912V65.915H235.343V65.439C235.343 63.2681 234.181 61.9541 232.258 61.9541C230.309 61.9541 229.071 63.3569 229.071 65.5659C229.071 67.7749 230.284 69.1333 232.264 69.1333C233.845 69.1333 234.949 68.3716 235.26 67.1338H233.946ZM237.044 69H238.409V59.3896H237.044V69ZM244.045 61.9731C243.106 61.9731 242.293 62.4429 241.875 63.23H241.773V62.0874H240.459V71.2979H241.824V67.9526H241.932C242.293 68.6826 243.074 69.1143 244.058 69.1143C245.804 69.1143 246.915 67.7368 246.915 65.5405C246.915 63.3442 245.804 61.9731 244.045 61.9731ZM243.658 67.8892C242.516 67.8892 241.798 66.9878 241.798 65.5469C241.798 64.0996 242.516 63.1982 243.665 63.1982C244.82 63.1982 245.512 64.0806 245.512 65.5405C245.512 67.0068 244.82 67.8892 243.658 67.8892ZM248.584 69H249.942V62.0874H248.584V69ZM249.263 60.875C249.771 60.875 250.146 60.5132 250.146 60.0435C250.146 59.5674 249.771 59.2056 249.263 59.2056C248.755 59.2056 248.381 59.5674 248.381 60.0435C248.381 60.5132 248.755 60.875 249.263 60.875ZM251.948 69H253.313V64.9565C253.313 63.8774 253.954 63.2046 254.963 63.2046C255.973 63.2046 256.455 63.7568 256.455 64.8677V69H257.82V64.5249C257.82 62.8809 256.969 61.9541 255.427 61.9541C254.386 61.9541 253.7 62.4175 253.364 63.1855H253.262V62.0874H251.948V69ZM262.638 67.7178C261.463 67.7178 260.803 66.8354 260.803 65.458C260.803 64.0806 261.463 63.1982 262.638 63.1982C263.799 63.1982 264.51 64.0806 264.51 65.458C264.51 66.8418 263.806 67.7178 262.638 67.7178ZM262.657 71.6406C264.612 71.6406 265.85 70.6377 265.85 69.0571V62.0874H264.542V63.1919H264.434C264.047 62.4429 263.215 61.9731 262.263 61.9731C260.499 61.9731 259.394 63.3569 259.394 65.4644C259.394 67.5337 260.486 68.8984 262.25 68.8984C263.203 68.8984 263.964 68.4858 264.383 67.7368H264.485V69.0635C264.485 69.9775 263.812 70.5171 262.676 70.5171C261.755 70.5171 261.178 70.1934 261.063 69.6919H259.667C259.813 70.8662 260.93 71.6406 262.657 71.6406ZM271.867 60.3672V62.1191H270.769V63.2681H271.867V67.1719C271.867 68.5049 272.47 69.0381 273.987 69.0381C274.254 69.0381 274.508 69.0063 274.73 68.9683V67.832C274.54 67.8511 274.419 67.8638 274.209 67.8638C273.53 67.8638 273.232 67.5464 273.232 66.8228V63.2681H274.73V62.1191H273.232V60.3672H271.867ZM279.18 69.1333C281.198 69.1333 282.436 67.7812 282.436 65.5405C282.436 63.3125 281.192 61.9541 279.18 61.9541C277.161 61.9541 275.917 63.3125 275.917 65.5405C275.917 67.7812 277.155 69.1333 279.18 69.1333ZM279.18 67.9209C277.993 67.9209 277.326 67.0513 277.326 65.5405C277.326 64.0425 277.993 63.1665 279.18 63.1665C280.36 63.1665 281.033 64.0425 281.033 65.5405C281.033 67.0449 280.36 67.9209 279.18 67.9209ZM291.221 61.9731C290.282 61.9731 289.469 62.4429 289.05 63.23H288.949V62.0874H287.635V71.2979H289V67.9526H289.107C289.469 68.6826 290.25 69.1143 291.234 69.1143C292.979 69.1143 294.09 67.7368 294.09 65.5405C294.09 63.3442 292.979 61.9731 291.221 61.9731ZM290.834 67.8892C289.691 67.8892 288.974 66.9878 288.974 65.5469C288.974 64.0996 289.691 63.1982 290.84 63.1982C291.996 63.1982 292.688 64.0806 292.688 65.5405C292.688 67.0068 291.996 67.8892 290.834 67.8892ZM295.734 69H297.099V64.9185C297.099 63.9473 297.829 63.2935 298.864 63.2935C299.105 63.2935 299.511 63.3379 299.625 63.376V62.0303C299.479 61.9922 299.219 61.9731 299.016 61.9731C298.115 61.9731 297.347 62.4683 297.15 63.1475H297.048V62.0874H295.734V69ZM303.682 69.1333C305.7 69.1333 306.938 67.7812 306.938 65.5405C306.938 63.3125 305.694 61.9541 303.682 61.9541C301.663 61.9541 300.419 63.3125 300.419 65.5405C300.419 67.7812 301.657 69.1333 303.682 69.1333ZM303.682 67.9209C302.495 67.9209 301.828 67.0513 301.828 65.5405C301.828 64.0425 302.495 63.1665 303.682 63.1665C304.862 63.1665 305.535 64.0425 305.535 65.5405C305.535 67.0449 304.862 67.9209 303.682 67.9209ZM309.064 60.3672V62.1191H307.966V63.2681H309.064V67.1719C309.064 68.5049 309.667 69.0381 311.185 69.0381C311.451 69.0381 311.705 69.0063 311.927 68.9683V67.832C311.737 67.8511 311.616 67.8638 311.407 67.8638C310.728 67.8638 310.429 67.5464 310.429 66.8228V63.2681H311.927V62.1191H310.429V60.3672H309.064ZM316.294 63.1157C317.304 63.1157 317.964 63.8203 317.996 64.9058H314.504C314.581 63.8267 315.285 63.1157 316.294 63.1157ZM317.989 67.1338C317.735 67.6733 317.17 67.9717 316.345 67.9717C315.253 67.9717 314.549 67.2036 314.504 65.9912V65.915H319.386V65.439C319.386 63.2681 318.224 61.9541 316.301 61.9541C314.352 61.9541 313.114 63.3569 313.114 65.5659C313.114 67.7749 314.327 69.1333 316.307 69.1333C317.888 69.1333 318.992 68.3716 319.303 67.1338H317.989ZM326.876 64.3472C326.698 62.9634 325.651 61.9541 323.918 61.9541C321.906 61.9541 320.681 63.3062 320.681 65.5215C320.681 67.7749 321.912 69.1333 323.924 69.1333C325.632 69.1333 326.698 68.1685 326.876 66.7783H325.549C325.372 67.521 324.781 67.9146 323.918 67.9146C322.782 67.9146 322.077 67.0195 322.077 65.5215C322.077 64.0488 322.775 63.1729 323.918 63.1729C324.832 63.1729 325.391 63.6743 325.549 64.3472H326.876ZM329.021 60.3672V62.1191H327.923V63.2681H329.021V67.1719C329.021 68.5049 329.625 69.0381 331.142 69.0381C331.408 69.0381 331.662 69.0063 331.884 68.9683V67.832C331.694 67.8511 331.573 67.8638 331.364 67.8638C330.685 67.8638 330.386 67.5464 330.386 66.8228V63.2681H331.884V62.1191H330.386V60.3672H329.021ZM337.73 71.5073C339.14 71.5073 339.793 70.9678 340.384 69.2856L342.961 62.0874H341.514L339.787 67.5781H339.679L337.946 62.0874H336.461L338.962 69.0254L338.86 69.3618C338.625 70.0601 338.257 70.3267 337.61 70.3267C337.483 70.3267 337.273 70.3203 337.166 70.3013V71.4756C337.292 71.4946 337.616 71.5073 337.73 71.5073ZM347.011 69.1333C349.029 69.1333 350.267 67.7812 350.267 65.5405C350.267 63.3125 349.023 61.9541 347.011 61.9541C344.992 61.9541 343.748 63.3125 343.748 65.5405C343.748 67.7812 344.986 69.1333 347.011 69.1333ZM347.011 67.9209C345.824 67.9209 345.157 67.0513 345.157 65.5405C345.157 64.0425 345.824 63.1665 347.011 63.1665C348.191 63.1665 348.864 64.0425 348.864 65.5405C348.864 67.0449 348.191 67.9209 347.011 67.9209ZM357.738 62.0874H356.374V66.1309C356.374 67.2163 355.771 67.8701 354.666 67.8701C353.663 67.8701 353.212 67.3369 353.212 66.2197V62.0874H351.848V66.5752C351.848 68.2002 352.698 69.1333 354.228 69.1333C355.275 69.1333 355.98 68.689 356.316 67.9019H356.424V69H357.738V62.0874Z"
        fill="black" />
    <path
        d="M64 86C84.9868 86 102 68.9868 102 48C102 27.0132 84.9868 10 64 10C43.0132 10 26 27.0132 26 48C26 68.9868 43.0132 86 64 86Z"
        fill="#FF0542" opacity="0.1" />
    <mask style="mask-type:alpha" height="102" id="mask0_25_239" maskUnits="userSpaceOnUse"
        width="382" x="0" y="0">
        <path
            d="M369 0H13C5.8203 0 0 5.8203 0 13V89C0 96.1797 5.8203 102 13 102H369C376.18 102 382 96.1797 382 89V13C382 5.8203 376.18 0 369 0Z"
            fill="#FFCBC4" />
    </mask>
    <g mask="url(#mask0_25_239)">
        <path
            d="M103.245 46.681L95.975 45.437L90.522 50.819L91.644 53.744L88.226 54.812L85.739 47.542L75.025 52.042L79.335 68.878C84.496 76.178 99.418 61.512 99.418 61.512L106.024 56.825L103.245 46.681Z"
            fill="#FFA8B0" />
        <path
            d="M88.227 54.811L85.7399 47.541L75.0259 52.041L79.336 68.877C79.4849 69.0887 79.6489 69.2892 79.827 69.477C80.089 61.826 88.227 54.811 88.227 54.811Z"
            fill="#FF707E" />
        <path d="M91.645 53.7439L93.3929 57.4899L96.167 56.0549" stroke="#FF707E"
            stroke-linecap="round" stroke-linejoin="round" />
        <path
            d="M92.526 48.8411L93.647 51.8781H94.667L97.385 59.3311L99.833 59.5941L101.033 58.7651"
            stroke="#FF707E" stroke-linecap="round" stroke-linejoin="round" />
        <path d="M94.671 51.8781L97.6039 48.8411L103.949 49.2411" stroke="#FF707E"
            stroke-linecap="round" stroke-linejoin="round" />
        <path d="M95.608 54.457L98.94 51.877H104.67" stroke="#FF707E" stroke-linecap="round"
            stroke-linejoin="round" />
        <path d="M96.5759 57.1049L100.14 55.1259L105.492 54.8699" stroke="#FF707E"
            stroke-linecap="round" stroke-linejoin="round" />
        <path
            d="M46.365 71.4929L50.013 148.444H68.122L63.845 89.9059L66.689 90.2529L86.489 150.876L104.212 146.039L79.975 72.6219L46.365 71.4929Z"
            fill="#504FC1" />
        <path
            d="M79.977 72.6219L66.259 72.1609C68.1562 77.831 72.062 82.6114 77.2401 85.6009L85.916 90.6099L79.977 72.6219Z"
            fill="#1A0086" />
        <path d="M63.8439 89.9048L55.2239 88.8628L64.098 93.3778L63.8439 89.9048Z" fill="#1A0086" />
        <path
            d="M40.842 52.9341L38.981 60.0281L25.895 66.3491L24.3749 63.2221C24.3749 63.2221 20.727 62.0061 19.685 61.0941L17.685 63.8301L16.122 63.5401L13.56 68.0861L17.7289 76.9011C17.7289 76.9011 24.156 77.7261 25.502 77.4221C26.848 77.1181 49.9219 68.5391 49.9219 68.5391L52.701 55.5981L40.842 52.9341Z"
            fill="#FFA8B0" />
        <path
            d="M52.705 55.5981L40.8429 52.9341L38.982 60.0281C38.982 60.0281 45.802 61.6521 46.214 69.9601L49.9259 68.5401L52.705 55.5981Z"
            fill="#FF707E" />
        <path d="M17.688 63.83L20.3369 68.377L23.029 67L21.755 63.772" stroke="#FF707E"
            stroke-linecap="round" stroke-linejoin="round" />
        <path d="M14.594 70.2682L17.176 65.4622H18.638" stroke="#FF707E" stroke-linecap="round"
            stroke-linejoin="round" />
        <path d="M15.908 73.0371L19.2979 68.8671L20.819 68.1311" stroke="#FF707E"
            stroke-linecap="round" stroke-linejoin="round" />
        <path d="M17.176 75.7261L20.6849 71.1261L24.777 69.7931L22.813 67.2151" stroke="#FF707E"
            stroke-linecap="round" stroke-linejoin="round" />
        <path d="M24.777 69.792L26.026 73.037L23.2899 74.642L23.4779 72.742" stroke="#FF707E"
            stroke-linecap="round" stroke-linejoin="round" />
        <path d="M25.896 66.3491L26.938 68.3771" stroke="#FF707E" stroke-linecap="round"
            stroke-linejoin="round" />
        <path d="M23.29 74.6431L21.698 74.1411" stroke="#FF707E" stroke-linecap="round"
            stroke-linejoin="round" />
        <path d="M25.123 70.6911C25.123 70.6911 27.069 69.866 28.154 70.908" stroke="#FF707E"
            stroke-linecap="round" stroke-linejoin="round" />
        <path
            d="M79.9769 72.621L46.365 71.4919L46.5649 75.692C56.1649 76.992 80.0189 72.7469 80.0189 72.7469L79.9769 72.621Z"
            fill="#1A0086" />
        <path
            d="M60.348 27.8089C60.348 27.8089 47.32 30.5849 43.933 39.0089C41.6527 45.1683 39.994 51.5404 38.982 58.0299L45.235 60.0299L45.843 72.1889C45.843 72.1889 71.032 74.4559 80.673 72.6319L79.2809 52.7319L86.851 49.1519L82.212 34.5959C81.579 32.5951 80.1886 30.9213 78.338 29.9319C75.141 28.2459 69.325 26.3929 60.348 27.8089Z"
            fill="white" />
        <path
            d="M60.127 44.0969V61.2618C60.1271 65.455 61.2046 69.5778 63.256 73.2349C69.79 73.4429 76.612 73.4008 80.673 72.6348L79.281 52.7349L86.851 49.1548L82.936 36.8699H69.9661C69.3093 38.9652 68.0007 40.796 66.231 42.0959C64.4612 43.3958 62.3228 44.0969 60.127 44.0969Z"
            fill="#C5C5E6" />
        <path d="M45.233 60.028V48.969L38.98 58.031L45.233 60.028Z" fill="#C5C5E6" />
        <path
            d="M58.2049 22.8259C58.2049 22.8259 56.7859 23.3469 56.2369 22.6529C56.1265 22.4814 56.0651 22.283 56.0593 22.079C56.0535 21.8751 56.1035 21.6735 56.204 21.496C56.2902 21.2881 56.3131 21.0594 56.2696 20.8386C56.2262 20.6177 56.1185 20.4147 55.9599 20.2549C54.6729 18.9369 51.927 15.6879 52.936 12.8379C54.236 9.16094 57.5099 8.75596 58.2049 9.10296C59.3869 7.57407 61.0871 6.53 62.9852 6.16735C64.8834 5.8047 66.8486 6.14849 68.511 7.13397C74.852 10.55 70.625 17.6429 66.861 17.6429L58.2049 22.8259Z"
            fill="#1A0086" />
        <path
            d="M57.8289 20.1189L58.2629 30.9759C58.2629 30.9759 59.0439 33.6249 61.2629 33.7119C63.4819 33.7989 65.8629 30.4119 65.9529 28.7609L66.3869 20.4809L57.8289 20.1189Z"
            fill="#FFA8B0" />
        <path
            d="M65.9999 27.8079L66.384 20.4809L57.8289 20.1189L57.8569 20.8189C58.7339 24.3749 59.6529 27.8079 65.9999 27.8079Z"
            fill="#FF707E" />
        <path
            d="M60.4059 13.8521V15.5891C60.4349 18.0501 57.829 18.774 57.829 18.774C57.829 18.774 57.743 18.053 57.685 17.59C57.6681 17.412 57.6075 17.2409 57.5086 17.0919C57.4096 16.9429 57.2755 16.8207 57.1179 16.736C56.9376 16.6578 56.7398 16.6284 56.5444 16.6507C56.3491 16.673 56.163 16.7462 56.0049 16.863C54.6689 17.656 55.742 21.257 57.872 20.84C58.046 22.004 58.8779 25.647 62.5189 26.157C66.8619 26.765 67.2959 18.2571 67.2959 18.2571C67.464 17.2138 67.5006 16.1535 67.4049 15.1011C65.0109 15.1701 62.6283 14.7449 60.4059 13.8521Z"
            fill="#FFA8B0" />
        <path
            d="M48.044 34.7829C48.044 34.7829 49.0839 37.0119 52.7179 36.3169C55.8989 35.7089 57.1569 29.0169 57.1569 29.0169C57.438 28.7387 57.7805 28.5304 58.1569 28.4089L58.0679 26.1909C58.0679 26.1909 49.1299 27.2079 47.9679 30.6179C47.686 31.2782 47.5471 31.9907 47.5602 32.7085C47.5733 33.4263 47.7382 34.1333 48.044 34.7829Z"
            fill="#FF464D" />
        <path d="M57.1569 29.013L58.072 26.187L58.1609 28.405L57.1569 29.013Z" fill="#E22B39" />
        <path
            d="M49.955 33.2779C49.955 33.0259 50.0297 32.7796 50.1697 32.5701C50.3097 32.3606 50.5087 32.1973 50.7415 32.1009C50.9742 32.0045 51.2304 31.9792 51.4775 32.0284C51.7247 32.0775 51.9517 32.1989 52.1299 32.3771C52.3081 32.5552 52.4294 32.7822 52.4785 33.0294C52.5277 33.2765 52.5024 33.5327 52.406 33.7654C52.3096 33.9982 52.1463 34.1972 51.9368 34.3372C51.7273 34.4772 51.481 34.5519 51.229 34.5519C50.8911 34.5519 50.567 34.4177 50.3281 34.1788C50.0892 33.9399 49.955 33.6158 49.955 33.2779Z"
            fill="#FC9D6A" />
        <path
            d="M66.085 26.1869C66.085 26.1869 64.198 33.2209 69.507 33.7139C74.319 34.1599 73.549 29.1989 77.371 29.4579L79.8859 31.0099C79.8859 31.0099 80.4109 28.2859 79.0209 26.9169C77.6309 25.5479 67.305 23.0869 66.085 26.1869Z"
            fill="#FF464D" />
        <path
            d="M77.371 29.4569L79.886 31.0088C80.1261 29.7417 79.9293 28.4306 79.3279 27.2898C77.8659 25.7528 74.993 30.2548 74.993 30.2548C75.3081 29.9578 75.6839 29.7326 76.0944 29.5948C76.505 29.457 76.9405 29.41 77.371 29.4569Z"
            fill="#E22B39" />
        <path
            d="M68.233 30.7298C68.233 30.4778 68.3077 30.2315 68.4477 30.022C68.5877 29.8125 68.7867 29.6492 69.0195 29.5528C69.2523 29.4564 69.5084 29.4311 69.7556 29.4803C70.0027 29.5294 70.2296 29.6507 70.4078 29.8289C70.5859 30.0071 70.7074 30.2341 70.7565 30.4813C70.8057 30.7284 70.7804 30.9846 70.684 31.2173C70.5876 31.4501 70.4243 31.6491 70.2148 31.7891C70.0053 31.9291 69.759 32.0038 69.507 32.0038C69.1691 32.0038 68.8451 31.8696 68.6061 31.6307C68.3672 31.3918 68.233 31.0677 68.233 30.7298Z"
            fill="#FC9D6A" />
        <path
            d="M105.934 34.783H74.834C74.1773 36.8783 72.8688 38.7092 71.0991 40.0091C69.3293 41.309 67.1909 42.01 64.9951 42.0099V59.174C64.9954 63.4741 66.1275 67.6983 68.2776 71.4223C70.4278 75.1463 73.5201 78.2388 77.244 80.389L88.128 86.673H92.644L103.528 80.389C107.252 78.2388 110.344 75.1463 112.494 71.4223C114.645 67.6983 115.777 63.4741 115.777 59.174V42.007C113.581 42.0079 111.442 41.3077 109.671 40.0083C107.901 38.7089 106.592 36.8783 105.934 34.783Z"
            fill="#E4FFE6" />
        <path
            d="M105.934 34.783H79.346C78.6891 36.8782 77.3806 38.709 75.6109 40.0089C73.8412 41.3087 71.7028 42.0098 69.507 42.0099V59.174C69.5074 63.4741 70.6395 67.6983 72.7896 71.4223C74.9397 75.1463 78.0321 78.2388 81.756 80.389L92.6401 86.673L103.524 80.389C107.248 78.2388 110.34 75.1463 112.49 71.4223C114.641 67.6983 115.773 63.4741 115.773 59.174V42.007C113.578 42.007 111.439 41.3064 109.67 40.0071C107.9 38.7078 106.591 36.8776 105.934 34.783Z"
            fill="#FF0543" />
        <path
            d="M83.84 76.7799C80.7536 74.9913 78.1905 72.4241 76.4069 69.3348C74.6233 66.2454 73.6816 62.7422 73.676 59.1749V45.5749C77.2131 44.5234 80.2107 42.1521 82.048 38.9519H103.234C105.071 42.1519 108.068 44.5231 111.605 45.5749V59.1749C111.599 62.7421 110.658 66.2454 108.874 69.3347C107.09 72.424 104.527 74.9912 101.441 76.7799L92.6411 81.8599L83.84 76.7799Z"
            fill="white" />
        <path
            d="M105.255 54.821H97.9551V47.521H90.7831V54.821H83.483V61.993H90.7831V69.293H97.9551V61.993H105.255V54.821Z"
            fill="#FF0A38" />
    </g>
</svg>
